<svg width="42" height="14" viewBox="0 0 42 14" fill="none" xmlns="http://www.w3.org/2000/svg">
<mask id="path-1-inside-1_141_192" fill="white">
<path fill-rule="evenodd" clip-rule="evenodd" d="M15 0H0V14H15V0ZM11.4508 6.73357C11.3933 6.65252 11.3106 6.58529 11.2112 6.53867L4.48089 3.30835C4.03266 3.09309 3.46157 3.35122 3.46157 3.76996L3.46157 10.2301C3.46157 10.6484 4.03209 10.907 4.48089 10.6917L11.2112 7.46188C11.3106 7.41525 11.3933 7.34802 11.4508 7.26697C11.5082 7.18592 11.5385 7.09393 11.5385 7.00027C11.5385 6.90662 11.5082 6.81462 11.4508 6.73357Z"/>
</mask>
<path fill-rule="evenodd" clip-rule="evenodd" d="M15 0H0V14H15V0ZM11.4508 6.73357C11.3933 6.65252 11.3106 6.58529 11.2112 6.53867L4.48089 3.30835C4.03266 3.09309 3.46157 3.35122 3.46157 3.76996L3.46157 10.2301C3.46157 10.6484 4.03209 10.907 4.48089 10.6917L11.2112 7.46188C11.3106 7.41525 11.3933 7.34802 11.4508 7.26697C11.5082 7.18592 11.5385 7.09393 11.5385 7.00027C11.5385 6.90662 11.5082 6.81462 11.4508 6.73357Z" fill="#4B98EB"/>
<path d="M0 0V-1C-0.552285 -1 -1 -0.552285 -1 0L0 0ZM15 0H16C16 -0.552285 15.5523 -1 15 -1V0ZM0 14H-1C-1 14.5523 -0.552285 15 0 15L0 14ZM15 14V15C15.5523 15 16 14.5523 16 14H15ZM11.2112 6.53867L10.7784 7.44024L10.7867 7.44413L11.2112 6.53867ZM11.4508 6.73357L12.2665 6.15515L12.2665 6.15514L11.4508 6.73357ZM4.48089 3.30835L4.04797 4.20979L4.04818 4.20989L4.48089 3.30835ZM3.46157 3.76996L4.46157 3.76996V3.76996H3.46157ZM3.46157 10.2301L2.46157 10.2301V10.2301H3.46157ZM4.48089 10.6917L4.91335 11.5934L4.91354 11.5933L4.48089 10.6917ZM11.2112 7.46188L10.7867 6.55638L10.7785 6.56032L11.2112 7.46188ZM0 1H15V-1H0V1ZM1 14V0H-1V14H1ZM15 13H0V15H15V13ZM14 0V14H16V0H14ZM10.7867 7.44413C10.7466 7.42533 10.6878 7.38646 10.635 7.312L12.2665 6.15514C12.0987 5.91858 11.8746 5.74525 11.6356 5.6332L10.7867 7.44413ZM4.04818 4.20989L10.7785 7.4402L11.6439 5.63713L4.91359 2.40682L4.04818 4.20989ZM4.46157 3.76996C4.46157 4.06754 4.25725 4.19353 4.21543 4.21246C4.16593 4.23486 4.11044 4.23979 4.04797 4.20979L4.9138 2.40692C4.40312 2.16166 3.83796 2.18802 3.39085 2.39035C2.95143 2.58921 2.46157 3.05363 2.46157 3.76996H4.46157ZM4.46157 10.2301L4.46157 3.76996L2.46157 3.76996L2.46157 10.2301L4.46157 10.2301ZM4.04842 9.79007C4.11047 9.76031 4.1659 9.7651 4.21557 9.7876C4.25735 9.80653 4.46157 9.9325 4.46157 10.2301H2.46157C2.46157 10.946 2.95104 11.4104 3.39029 11.6094C3.83741 11.8119 4.40251 11.8384 4.91335 11.5934L4.04842 9.79007ZM10.7785 6.56032L4.04823 9.79016L4.91354 11.5933L11.6438 8.36344L10.7785 6.56032ZM10.635 6.68854C10.6878 6.61408 10.7466 6.57521 10.7867 6.55642L11.6356 8.36734C11.8746 8.25529 12.0987 8.08196 12.2665 7.8454L10.635 6.68854ZM10.5385 7.00027C10.5385 6.8737 10.5803 6.76565 10.635 6.68854L12.2665 7.8454C12.4361 7.6062 12.5385 7.31415 12.5385 7.00027H10.5385ZM10.635 7.312C10.5804 7.2349 10.5385 7.12685 10.5385 7.00027H12.5385C12.5385 6.68639 12.4361 6.39435 12.2665 6.15515L10.635 7.312Z" fill="#0567D0" mask="url(#path-1-inside-1_141_192)"/>
<mask id="path-3-inside-2_141_192" fill="white">
<path fill-rule="evenodd" clip-rule="evenodd" d="M27.2432 0H42V14H27.2432V0ZM30.735 6.73357C30.7915 6.65252 30.8728 6.58529 30.9707 6.53867L37.5918 3.30835C38.0328 3.09309 38.5946 3.35122 38.5946 3.76996L38.5946 10.2301C38.5946 10.6484 38.0333 10.907 37.5918 10.6917L30.9707 7.46188C30.8728 7.41525 30.7915 7.34802 30.735 7.26697C30.6784 7.18592 30.6486 7.09393 30.6486 7.00027C30.6486 6.90662 30.6784 6.81462 30.735 6.73357Z"/>
</mask>
<path fill-rule="evenodd" clip-rule="evenodd" d="M27.2432 0H42V14H27.2432V0ZM30.735 6.73357C30.7915 6.65252 30.8728 6.58529 30.9707 6.53867L37.5918 3.30835C38.0328 3.09309 38.5946 3.35122 38.5946 3.76996L38.5946 10.2301C38.5946 10.6484 38.0333 10.907 37.5918 10.6917L30.9707 7.46188C30.8728 7.41525 30.7915 7.34802 30.735 7.26697C30.6784 7.18592 30.6486 7.09393 30.6486 7.00027C30.6486 6.90662 30.6784 6.81462 30.735 6.73357Z" fill="#4B98EB"/>
<path d="M42 0V-1C42.5523 -1 43 -0.552285 43 0L42 0ZM27.2432 0H26.2432C26.2432 -0.552285 26.691 -1 27.2432 -1V0ZM42 14H43C43 14.5523 42.5523 15 42 15V14ZM27.2432 14V15C26.691 15 26.2432 14.5523 26.2432 14H27.2432ZM30.9707 6.53867L31.4092 7.43745L31.4008 7.44143L30.9707 6.53867ZM30.735 6.73357L29.9148 6.16144L29.9148 6.16143L30.735 6.73357ZM37.5918 3.30835L38.0305 4.20699L38.0303 4.2071L37.5918 3.30835ZM38.5946 3.76996L37.5946 3.76996V3.76996H38.5946ZM38.5946 10.2301L39.5946 10.2301V10.2301H38.5946ZM37.5918 10.6917L37.1536 11.5906L37.1534 11.5905L37.5918 10.6917ZM30.9707 7.46188L31.4008 6.55908L31.4091 6.56311L30.9707 7.46188ZM42 1H27.2432V-1H42V1ZM41 14V0H43V14H41ZM27.2432 13H42V15H27.2432V13ZM28.2432 0V14H26.2432V0H28.2432ZM31.4008 7.44143C31.4438 7.42092 31.5031 7.38031 31.5551 7.30571L29.9148 6.16143C30.0799 5.92474 30.3018 5.74966 30.5405 5.6359L31.4008 7.44143ZM38.0303 4.2071L31.4091 7.43741L30.5322 5.63992L37.1533 2.40961L38.0303 4.2071ZM37.5946 3.76996C37.5946 4.05837 37.7905 4.18682 37.8406 4.20989C37.8964 4.23552 37.961 4.24091 38.0305 4.20699L37.1531 2.40971C37.6635 2.16054 38.2296 2.18735 38.6765 2.39292C39.1178 2.59592 39.5946 3.0628 39.5946 3.76996H37.5946ZM37.5946 10.2301L37.5946 3.76996L39.5946 3.76996L39.5946 10.2301L37.5946 10.2301ZM38.03 9.79286C37.961 9.75919 37.8964 9.76444 37.8405 9.79016C37.7904 9.81324 37.5946 9.94166 37.5946 10.2301H39.5946C39.5946 10.9368 39.1182 11.4037 38.677 11.6068C38.2301 11.8126 37.6642 11.8395 37.1536 11.5906L38.03 9.79286ZM31.4091 6.56311L38.0302 9.79295L37.1534 11.5905L30.5322 8.36065L31.4091 6.56311ZM31.5551 6.69483C31.5031 6.62024 31.4438 6.57962 31.4008 6.55912L30.5405 8.36464C30.3018 8.25088 30.0799 8.07581 29.9148 7.83911L31.5551 6.69483ZM31.6486 7.00027C31.6486 6.87767 31.6088 6.7718 31.5551 6.69483L29.9148 7.83911C29.748 7.60004 29.6486 7.31018 29.6486 7.00027H31.6486ZM31.5551 7.30571C31.6088 7.22874 31.6486 7.12288 31.6486 7.00027H29.6486C29.6486 6.69036 29.748 6.4005 29.9148 6.16144L31.5551 7.30571Z" fill="#0567D0" mask="url(#path-3-inside-2_141_192)"/>
<rect x="14.1216" y="0.5" width="13.7568" height="13" fill="#8FC3FB" stroke="#0567D0" stroke-linejoin="round"/>
</svg>
