<svg width="42" height="28" viewBox="0 0 42 28" fill="none" xmlns="http://www.w3.org/2000/svg">
<mask id="path-1-inside-1_141_175" fill="white">
<path fill-rule="evenodd" clip-rule="evenodd" d="M28.35 0H13.65V14H0V28H42V14H28.35V0Z"/>
</mask>
<path fill-rule="evenodd" clip-rule="evenodd" d="M28.35 0H13.65V14H0V28H42V14H28.35V0Z" fill="#4B98EB"/>
<path d="M13.65 0V-1C13.0977 -1 12.65 -0.552285 12.65 0L13.65 0ZM28.35 0H29.35C29.35 -0.552285 28.9023 -1 28.35 -1V0ZM13.65 14V15C14.2023 15 14.65 14.5523 14.65 14H13.65ZM0 14V13C-0.552285 13 -1 13.4477 -1 14H0ZM0 28H-1C-1 28.5523 -0.552285 29 0 29L0 28ZM42 28V29C42.5523 29 43 28.5523 43 28H42ZM42 14H43C43 13.4477 42.5523 13 42 13V14ZM28.35 14H27.35C27.35 14.5523 27.7977 15 28.35 15V14ZM13.65 1H28.35V-1H13.65V1ZM14.65 14V0H12.65V14H14.65ZM0 15H13.65V13H0V15ZM1 28V14H-1V28H1ZM42 27H0V29H42V27ZM41 14V28H43V14H41ZM28.35 15H42V13H28.35V15ZM27.35 0V14H29.35V0H27.35Z" fill="#0567D0" mask="url(#path-1-inside-1_141_175)"/>
</svg>
