<svg width="28" height="28" viewBox="0 0 28 28" fill="none" xmlns="http://www.w3.org/2000/svg">
<mask id="path-1-inside-1_141_194" fill="white">
<path fill-rule="evenodd" clip-rule="evenodd" d="M28 0H13V14H0V28H14H21L24.3704 24.5L28 21V15V14V0Z"/>
</mask>
<path fill-rule="evenodd" clip-rule="evenodd" d="M28 0H13V14H0V28H14H21L24.3704 24.5L28 21V15V14V0Z" fill="#4B98EB"/>
<path d="M13 0V-1C12.4477 -1 12 -0.552285 12 0L13 0ZM28 0H29C29 -0.552285 28.5523 -1 28 -1V0ZM13 14V15C13.5523 15 14 14.5523 14 14H13ZM0 14V13C-0.552285 13 -1 13.4477 -1 14H0ZM0 28H-1C-1 28.5523 -0.552285 29 0 29L0 28ZM21 28V29C21.2718 29 21.5318 28.8894 21.7203 28.6936L21 28ZM24.3704 24.5L23.6762 23.7802C23.6673 23.7887 23.6586 23.7975 23.65 23.8064L24.3704 24.5ZM28 21L28.6941 21.7198C28.8896 21.5314 29 21.2715 29 21H28ZM13 1H28V-1H13V1ZM14 14V0H12V14H14ZM0 15H13V13H0V15ZM1 28V14H-1V28H1ZM14 27H0V29H14V27ZM21 27H14V29H21V27ZM23.65 23.8064L20.2797 27.3064L21.7203 28.6936L25.0907 25.1936L23.65 23.8064ZM27.3059 20.2802L23.6762 23.7802L25.0645 25.2198L28.6941 21.7198L27.3059 20.2802ZM27 15V21H29V15H27ZM27 14V15H29V14H27ZM27 0V14H29V0H27Z" fill="#0567D0" mask="url(#path-1-inside-1_141_194)"/>
</svg>
